<svg width="166" height="166" viewBox="0 0 166 166" fill="none" xmlns="http://www.w3.org/2000/svg">
<rect width="166" height="166" rx="12" fill="white"/>
<path d="M72.0704 51.321C78.4179 50.9553 86.1612 50.8885 92.5071 51.1908C108.793 51.9672 113.934 56.1964 114.767 72.7212C115.073 78.7988 115.076 86.4192 114.787 92.5002C114.012 108.79 109.785 113.934 93.2634 114.767C87.188 115.073 79.5699 115.076 73.4911 114.787C56.9243 113.997 52.0059 109.589 51.2129 92.8876C50.929 86.9168 50.929 79.4467 51.2129 73.4759C51.9708 57.5539 55.8458 52.2527 72.072 51.3193L72.0704 51.321ZM96.1684 70.2C96.1033 74.0386 101.169 73.7197 100.803 70.0497C100.671 68.7207 99.0851 63.8269 98.1334 63.0054C95.8278 61.0168 84.0626 62.3759 87.4618 66.7054C88.5754 68.1246 90.0546 67.1195 91.5204 67.6788C84.7488 76.5581 74.3526 79.0076 63.6058 79.2897C61.4004 79.7439 61.7927 83.1767 63.5056 83.691C65.6176 84.3255 72.4393 83.3103 74.8735 82.8111C80.3379 81.6891 86.021 79.3515 90.3267 75.7884C92.0964 74.3241 93.776 71.6844 95.1901 70.5774C95.5306 70.3102 95.6108 70.0681 96.1667 70.2017L96.1684 70.2ZM98.0049 83.8363C97.2269 83.9982 96.2803 84.6761 96.1784 85.5176C96.5107 90.5183 95.7076 96.11 96.1517 101.032C96.4656 104.51 99.2136 105.041 100.811 102.168C100.477 97.1686 101.286 91.5735 100.838 86.653C100.676 84.8731 100.149 83.3888 98.0032 83.8346L98.0049 83.8363ZM82.5066 90.0374C81.6769 90.2094 80.8471 90.8556 80.6801 91.7188C80.3696 93.335 80.4881 99.1939 80.6534 101.032C81.004 104.914 84.6553 104.467 85.2463 102.488C85.5418 101.5 85.4583 92.5319 85.1461 91.4984C84.7605 90.2228 83.8105 89.7653 82.5049 90.0374H82.5066ZM67.0083 93.138C66.3973 93.2649 65.4373 93.8727 65.2503 94.4988C64.9832 95.3887 65.0349 100.273 65.1668 101.41C65.5608 104.839 69.1871 104.373 69.7497 102.488C70.0168 101.597 69.9651 96.7145 69.8332 95.5774C69.6362 93.8777 68.8648 92.749 67.0083 93.1363V93.138Z" fill="#94B5FF"/>
<path d="M96.1684 70.2C95.6108 70.0664 95.5323 70.3102 95.1917 70.5757C93.7776 71.6827 92.0964 74.3224 90.3284 75.7868C86.0226 79.3498 80.3396 81.6874 74.8752 82.8094C72.441 83.3086 65.6193 84.3238 63.5073 83.6893C61.7944 83.1751 61.402 79.7422 63.6075 79.2881C74.3526 79.0059 84.7505 76.5565 91.5221 67.6771C90.0579 67.1178 88.5787 68.1229 87.4635 66.7037C84.0643 62.3726 95.8295 61.0151 98.1351 63.0037C100.441 64.9923 100.673 68.719 100.805 70.0481C101.17 73.7197 96.1066 74.0369 96.1701 70.1983L96.1684 70.2Z" fill="white"/>
<path d="M96.0265 86.2773C96.0265 84.8941 97.1477 83.7728 98.5308 83.7728C99.9139 83.7728 101.035 84.8941 101.035 86.2773V101.471C101.035 102.855 99.9139 103.976 98.5308 103.976C97.1477 103.976 96.0265 102.855 96.0265 101.471V86.2773Z" fill="white"/>
<path d="M80.4998 92.4551C80.4998 91.0719 81.621 89.9506 83.0041 89.9506C84.3872 89.9506 85.5084 91.0719 85.5084 92.4551V101.471C85.5084 102.855 84.3872 103.976 83.0041 103.976C81.621 103.976 80.4998 102.855 80.4998 101.471V92.4551Z" fill="white"/>
<path d="M65.1401 95.6275C65.1401 94.2443 66.2613 93.123 67.6444 93.123C69.0275 93.123 70.1487 94.2443 70.1487 95.6275V101.471C70.1487 102.855 69.0275 103.976 67.6444 103.976C66.2613 103.976 65.1401 102.855 65.1401 101.471V95.6275Z" fill="white"/>
</svg>
